<svg width="19" height="15" viewBox="0 0 19 15" fill="none" xmlns="http://www.w3.org/2000/svg">
<path d="M16.6667 0H1.66667C0.75 0 0 0.75 0 1.66667V12.5C0 13.4167 0.75 14.1667 1.66667 14.1667H16.6667C17.5833 14.1667 18.3333 13.4167 18.3333 12.5V1.66667C18.3333 0.75 17.5833 0 16.6667 0ZM1.66667 12.5V1.66667H8.33333V12.5H1.66667ZM16.6667 12.5H10V1.66667H16.6667V12.5ZM10.8333 4.58333H15.8333V5.83333H10.8333V4.58333ZM10.8333 6.66667H15.8333V7.91667H10.8333V6.66667ZM10.8333 8.75H15.8333V10H10.8333V8.75Z" fill="#363B42"/>
</svg>
