<svg width="14" height="17" viewBox="0 0 14 17" fill="none" xmlns="http://www.w3.org/2000/svg">
<path d="M8.33333 0H1.66667C0.75 0 0 0.75 0 1.66667V15C0 15.9167 0.75 16.6667 1.66667 16.6667H11.6667C12.5833 16.6667 13.3333 15.9167 13.3333 15V5L8.33333 0ZM1.66667 15V1.66667H7.5V5H11.6667V15H1.66667ZM5.83333 14.1667H7.5V13.3333H8.33333C8.79167 13.3333 9.16667 12.9583 9.16667 12.5V10C9.16667 9.54167 8.79167 9.16667 8.33333 9.16667H5.83333V8.33333H9.16667V6.66667H7.5V5.83333H5.83333V6.66667H5C4.54167 6.66667 4.16667 7.04167 4.16667 7.5V10C4.16667 10.4583 4.54167 10.8333 5 10.8333H7.5V11.6667H4.16667V13.3333H5.83333V14.1667Z" fill="#363B42"/>
</svg>
