<svg width="1440" height="120" viewBox="0 0 1440 120" fill="none" xmlns="http://www.w3.org/2000/svg">
<g clip-path="url(#clip0_7395_33701)">
<rect width="1440" height="124" fill="#27904D"/>
<g opacity="0.7">
<path d="M-58.9998 -24.9766L-45.707 -48.0004L228.967 110.583L215.675 133.607L-58.9998 -24.9766Z" fill="url(#paint0_linear_7395_33701)" fill-opacity="0.6"/>
<path d="M-107 0.0234375L-93.7072 -23.0004L180.967 135.583L167.674 158.607L-107 0.0234375Z" fill="url(#paint1_linear_7395_33701)" fill-opacity="0.6"/>
<path d="M265.616 164.876L230.039 103.257L37.4787 214.431L73.055 276.051L265.616 164.876Z" fill="url(#paint2_linear_7395_33701)"/>
<ellipse cx="35.5763" cy="35.576" rx="35.5763" ry="35.576" transform="matrix(-0.5 -0.866025 -0.866025 0.5 296.428 147.088)" fill="#DCFAD8"/>
<ellipse cx="35.5763" cy="35.576" rx="35.5763" ry="35.576" transform="matrix(-0.5 -0.866025 -0.866025 0.5 296.428 147.088)" fill="url(#paint3_linear_7395_33701)"/>
</g>
<g opacity="0.4">
<path d="M1305.05 45.9956L1351.72 83.6957L1469.53 -62.1672L1422.86 -99.8673L1305.05 45.9956Z" fill="url(#paint4_linear_7395_33701)"/>
<ellipse cx="30" cy="29.9997" rx="30" ry="29.9997" transform="matrix(0.777942 0.628335 0.628335 -0.777942 1283.63 72.0791)" fill="#DCFAD8"/>
<ellipse cx="30" cy="29.9997" rx="30" ry="29.9997" transform="matrix(0.777942 0.628335 0.628335 -0.777942 1283.63 72.0791)" fill="#34A853"/>
<path d="M1297.58 17.2476L1250.9 -20.4526L1133.09 125.41L1179.77 163.111L1297.58 17.2476Z" fill="url(#paint5_linear_7395_33701)"/>
<ellipse cx="30" cy="29.9997" rx="30" ry="29.9997" transform="matrix(-0.777942 -0.628335 -0.628335 0.777942 1319 -8.83594)" fill="#DCFAD8"/>
<ellipse cx="30" cy="29.9997" rx="30" ry="29.9997" transform="matrix(-0.777942 -0.628335 -0.628335 0.777942 1319 -8.83594)" fill="#34A853"/>
<path d="M1453.14 95.6084L1406.47 57.9083L1288.65 203.771L1335.33 241.471L1453.14 95.6084Z" fill="url(#paint6_linear_7395_33701)"/>
<ellipse cx="30" cy="29.9997" rx="30" ry="29.9997" transform="matrix(-0.777942 -0.628335 -0.628335 0.777942 1474.56 69.5249)" fill="#DCFAD8"/>
<ellipse cx="30" cy="29.9997" rx="30" ry="29.9997" transform="matrix(-0.777942 -0.628335 -0.628335 0.777942 1474.56 69.5249)" fill="#34A853"/>
</g>
</g>
<defs>
<linearGradient id="paint0_linear_7395_33701" x1="-52.3534" y1="-36.4885" x2="222.321" y2="122.095" gradientUnits="userSpaceOnUse">
<stop stop-color="#27904D"/>
<stop offset="1" stop-color="white" stop-opacity="0"/>
</linearGradient>
<linearGradient id="paint1_linear_7395_33701" x1="-100.354" y1="-11.4885" x2="174.321" y2="147.095" gradientUnits="userSpaceOnUse">
<stop stop-color="#27904D"/>
<stop offset="1" stop-color="white" stop-opacity="0"/>
</linearGradient>
<linearGradient id="paint2_linear_7395_33701" x1="247.827" y1="134.067" x2="55.2669" y2="245.241" gradientUnits="userSpaceOnUse">
<stop stop-color="#CBF1CA"/>
<stop offset="1" stop-color="white" stop-opacity="0"/>
</linearGradient>
<linearGradient id="paint3_linear_7395_33701" x1="35.5763" y1="0" x2="35.5763" y2="71.1519" gradientUnits="userSpaceOnUse">
<stop stop-color="#CBF1CA"/>
<stop offset="1" stop-color="white" stop-opacity="0"/>
</linearGradient>
<linearGradient id="paint4_linear_7395_33701" x1="1328.38" y1="64.8457" x2="1446.2" y2="-81.0173" gradientUnits="userSpaceOnUse">
<stop stop-color="#27904D"/>
<stop offset="1" stop-color="white" stop-opacity="0"/>
</linearGradient>
<linearGradient id="paint5_linear_7395_33701" x1="1274.24" y1="-1.6025" x2="1156.43" y2="144.26" gradientUnits="userSpaceOnUse">
<stop stop-color="#27904D"/>
<stop offset="1" stop-color="white" stop-opacity="0"/>
</linearGradient>
<linearGradient id="paint6_linear_7395_33701" x1="1429.8" y1="76.7583" x2="1311.99" y2="222.621" gradientUnits="userSpaceOnUse">
<stop stop-color="#27904D"/>
<stop offset="1" stop-color="white" stop-opacity="0"/>
</linearGradient>
<clipPath id="clip0_7395_33701">
<rect width="1440" height="124" fill="white"/>
</clipPath>
</defs>
</svg>
