<svg width="15" height="15" viewBox="0 0 15 15" fill="none" xmlns="http://www.w3.org/2000/svg">
<path d="M9.30833 1.66667L13.3333 5.69167V13.3333H1.66667V1.66667H9.30833ZM9.30833 0H1.66667C0.75 0 0 0.75 0 1.66667V13.3333C0 14.25 0.75 15 1.66667 15H13.3333C14.25 15 15 14.25 15 13.3333V5.69167C15 5.25 14.825 4.825 14.5083 4.51667L10.4833 0.491667C10.175 0.175 9.75 0 9.30833 0ZM3.33333 10H11.6667V11.6667H3.33333V10ZM3.33333 6.66667H11.6667V8.33333H3.33333V6.66667ZM3.33333 3.33333H9.16667V5H3.33333V3.33333Z" fill="#363B42"/>
</svg>
