<svg width="17" height="17" viewBox="0 0 17 17" fill="none" xmlns="http://www.w3.org/2000/svg">
<path d="M1.66667 3.33333H0V15C0 15.9167 0.75 16.6667 1.66667 16.6667H13.3333V15H1.66667V3.33333ZM15 0H5C4.08333 0 3.33333 0.75 3.33333 1.66667V11.6667C3.33333 12.5833 4.08333 13.3333 5 13.3333H15C15.9167 13.3333 16.6667 12.5833 16.6667 11.6667V1.66667C16.6667 0.75 15.9167 0 15 0ZM15 11.6667H5V1.66667H15V11.6667ZM6.66667 5.83333H13.3333V7.5H6.66667V5.83333ZM6.66667 8.33333H10V10H6.66667V8.33333ZM6.66667 3.33333H13.3333V5H6.66667V3.33333Z" fill="white"/>
</svg>
